# xmcd CD database file
#
# Track frame offsets:
#	150
#	7021
#	38051
#	62448
#	82737
#	86596
#	115238
#	130558
#	134916
#	169816
#
# Disc length: 2597 seconds
#
# Revision: 0
# Processed by: cddbd v1.5.2PL0 Copyright (c) Steve Scherf et al.
# Submitted via: Feurio! 1.68 - http://www.feurio.com
#
DISCID=790a230a
DTITLE=Robben Ford - Yoshi's   Oakland, CA   05-29-98   Disc 1
DYEAR=1900
DGENRE=
TTITLE0=introductions by Bill Evans
TTITLE1=Red Lady With Cello
TTITLE2=Just Like It Is
TTITLE3=Tired Of Talkin'
TTITLE4=band introductions
TTITLE5=Don't Let Me Be Misunderstood
TTITLE6=The Miller's Son
TTITLE7=the authorized bootleg
TTITLE8=Lovin' Cup
TTITLE9=Talk To Your Daughter
EXTD=
EXTT0=
EXTT1=
EXTT2=
EXTT3=
EXTT4=
EXTT5=
EXTT6=
EXTT7=
EXTT8=
EXTT9=
PLAYORDER=
